<svg width="241" height="34" viewBox="0 0 241 34" fill="none" xmlns="http://www.w3.org/2000/svg">
<rect width="241" height="34" rx="17" fill="#304674"/>
<path d="M95.0322 24.14C93.3389 24.14 91.9389 23.7467 90.8322 22.96C89.7389 22.16 89.1455 20.9933 89.0522 19.46H93.7722C93.8389 20.2733 94.1989 20.68 94.8522 20.68C95.0922 20.68 95.2922 20.6267 95.4522 20.52C95.6255 20.4 95.7122 20.22 95.7122 19.98C95.7122 19.6467 95.5322 19.38 95.1722 19.18C94.8122 18.9667 94.2522 18.7267 93.4922 18.46C92.5855 18.14 91.8322 17.8267 91.2322 17.52C90.6455 17.2133 90.1389 16.7667 89.7122 16.18C89.2855 15.5933 89.0789 14.84 89.0922 13.92C89.0922 13 89.3255 12.22 89.7922 11.58C90.2722 10.9267 90.9189 10.4333 91.7322 10.1C92.5589 9.76667 93.4855 9.6 94.5122 9.6C96.2455 9.6 97.6189 10 98.6322 10.8C99.6589 11.6 100.199 12.7267 100.252 14.18H95.4722C95.4589 13.78 95.3589 13.4933 95.1722 13.32C94.9855 13.1467 94.7589 13.06 94.4922 13.06C94.3055 13.06 94.1522 13.1267 94.0322 13.26C93.9122 13.38 93.8522 13.5533 93.8522 13.78C93.8522 14.1 94.0255 14.3667 94.3722 14.58C94.7322 14.78 95.2989 15.0267 96.0722 15.32C96.9655 15.6533 97.6989 15.9733 98.2722 16.28C98.8589 16.5867 99.3655 17.0133 99.7922 17.56C100.219 18.1067 100.432 18.7933 100.432 19.62C100.432 20.4867 100.219 21.2667 99.7922 21.96C99.3655 22.64 98.7455 23.1733 97.9322 23.56C97.1189 23.9467 96.1522 24.14 95.0322 24.14ZM113.112 9.84V13.36H109.352V24H104.912V13.36H101.192V9.84H113.112ZM123.396 21.86H118.676L117.976 24H113.316L118.496 9.84H123.616L128.776 24H124.096L123.396 21.86ZM122.316 18.52L121.036 14.58L119.756 18.52H122.316ZM136.905 24L134.245 18.92H134.225V24H129.785V9.84H136.385C137.532 9.84 138.512 10.0467 139.325 10.46C140.138 10.86 140.745 11.4133 141.145 12.12C141.558 12.8133 141.765 13.6 141.765 14.48C141.765 15.4267 141.498 16.2667 140.965 17C140.445 17.7333 139.692 18.26 138.705 18.58L141.785 24H136.905ZM134.225 15.96H135.985C136.412 15.96 136.732 15.8667 136.945 15.68C137.158 15.48 137.265 15.1733 137.265 14.76C137.265 14.3867 137.152 14.0933 136.925 13.88C136.712 13.6667 136.398 13.56 135.985 13.56H134.225V15.96ZM154.304 9.84V13.36H150.544V24H146.104V13.36H142.384V9.84H154.304Z" fill="#D8E1E8"/>
</svg>
